<svg width="26" height="30" viewBox="0 0 26 30" fill="none" xmlns="http://www.w3.org/2000/svg">
<path id="Vector" d="M13.8465 17.7859C16.2111 16.8726 20.4565 17.6821 22.9595 18.3026C23.772 18.504 24.5158 17.6937 24.2166 16.9104L18.5654 2.11413C18.2662 1.33081 17.1742 1.22949 16.7047 1.92599C15.2582 4.07182 12.6432 7.53082 10.2785 8.44405M13.8465 17.7859L10.2785 8.44405M13.8465 17.7859L8.01619 20.0376C5.44059 21.0323 2.9555 20.8009 1.56796 17.168C0.180422 13.5351 1.87263 11.6904 4.44822 10.6957L10.2785 8.44405M6.85013 20.4879L13.4578 27.9602C13.7336 28.2721 14.1739 28.3792 14.5627 28.229L17.2344 27.1972C17.8857 26.9457 18.0877 26.1201 17.6258 25.5977L11.5144 18.6865M22.729 13.0154C24.6611 12.2692 25.6282 10.0962 24.8892 8.16125C24.1502 6.22633 21.9852 5.26287 20.053 6.00908M15.6305 22.4568C16.7965 22.0064 18.6827 19.938 17.7907 17.6026" stroke="white" stroke-width="1.5"/>
</svg>
