<svg width="25" height="26" viewBox="0 0 25 26" fill="none" xmlns="http://www.w3.org/2000/svg">
<g id="Group 48098075">
<path id="Vector" d="M1.74684 0.952891C1.74684 0.700169 1.65482 0.457797 1.49102 0.279095C1.32722 0.100393 1.10506 0 0.873418 0C0.641773 0 0.419616 0.100393 0.255818 0.279095C0.0920206 0.457797 3.45178e-09 0.700169 0 0.952891V24.4575C0 24.9835 0.391291 25.4104 0.873418 25.4104H22.1266C22.3582 25.4104 22.5804 25.31 22.7442 25.1313C22.908 24.9526 23 24.7103 23 24.4575C23 24.2048 22.908 23.9624 22.7442 23.7837C22.5804 23.605 22.3582 23.5046 22.1266 23.5046H1.74684V0.952891Z" fill="white"/>
<path id="Vector_2" d="M24.7652 7.89881C24.9197 7.72451 25.0039 7.49398 24.9999 7.25578C24.9959 7.01757 24.904 6.7903 24.7437 6.62184C24.5834 6.45338 24.3671 6.35689 24.1404 6.35268C23.9138 6.34848 23.6944 6.4369 23.5285 6.59931L16.8552 13.6117L12.5152 9.05119C12.3511 8.87901 12.1287 8.7823 11.8968 8.7823C11.665 8.7823 11.4426 8.87901 11.2785 9.05119L4.27849 16.4068C4.19252 16.491 4.12357 16.5925 4.07575 16.7053C4.02792 16.8181 4.00221 16.9399 4.00014 17.0633C3.99806 17.1868 4.01968 17.3094 4.06368 17.4239C4.10769 17.5384 4.17319 17.6424 4.25628 17.7297C4.33937 17.817 4.43834 17.8858 4.5473 17.9321C4.65625 17.9783 4.77295 18.001 4.89044 17.9988C5.00792 17.9967 5.12379 17.9696 5.23112 17.9194C5.33845 17.8691 5.43505 17.7967 5.51516 17.7063L11.8968 11.0004L16.2368 15.5609C16.4009 15.7331 16.6233 15.8298 16.8552 15.8298C17.087 15.8298 17.3094 15.7331 17.4735 15.5609L24.7652 7.89881Z" fill="white"/>
</g>
</svg>
