<svg width="33" height="33" viewBox="0 0 33 33" fill="none" xmlns="http://www.w3.org/2000/svg">
<g id="Frame" clip-path="url(#clip0_1411_8251)">
<g id="Group 427319226">
<path id="Vector" d="M22.9198 20.793C22.2107 20.793 21.6357 21.3678 21.6357 22.077C21.6357 22.7861 22.2107 23.361 22.9198 23.361H27.1998C27.909 23.361 28.4839 22.7861 28.4839 22.077C28.4839 21.3678 27.909 20.793 27.1998 20.793H22.9198Z" fill="white"/>
<path id="Vector_2" d="M3.30329 4.52832C1.13645 4.52832 -0.620117 6.28489 -0.620117 8.45172V24.8587C-0.620117 27.0255 1.13645 28.7821 3.30329 28.7821H29.6971C31.8639 28.7821 33.6205 27.0255 33.6205 24.8587V8.45172C33.6205 6.28489 31.8639 4.52832 29.6971 4.52832H3.30329ZM1.51992 24.8587V13.8018H31.4804V24.8587C31.4804 25.8437 30.6821 26.642 29.6971 26.642H3.30329C2.31835 26.642 1.51992 25.8437 1.51992 24.8587ZM1.51992 11.6618V8.45172C1.51992 7.46679 2.31835 6.66836 3.30329 6.66836H29.6971C30.6821 6.66836 31.4804 7.46679 31.4804 8.45172V11.6618H1.51992Z" fill="white"/>
</g>
</g>
<defs>
<clipPath id="clip0_1411_8251">
<rect width="33" height="33" fill="white"/>
</clipPath>
</defs>
</svg>
