<svg width="25" height="26" viewBox="0 0 25 26" fill="none" xmlns="http://www.w3.org/2000/svg">
<g id="Frame" clip-path="url(#clip0_1411_8266)">
<path id="Vector" d="M12.5 1.35872L13.0423 0.726011C12.7302 0.458517 12.2697 0.458517 11.9577 0.726011L12.5 1.35872ZM0.833333 11.3587L0.291007 10.726L0 10.9754V11.3587H0.833333ZM9.16667 24.6921V25.5254C9.6269 25.5254 10 25.1522 10 24.6921H9.16667ZM15.8333 24.6921H15C15 25.1522 15.3731 25.5254 15.8333 25.5254V24.6921ZM24.1667 11.3587H25V10.9754L24.709 10.726L24.1667 11.3587ZM2.5 25.5254H9.16667V23.8587H2.5V25.5254ZM24.709 10.726L13.0423 0.726011L11.9577 1.99144L23.6243 11.9914L24.709 10.726ZM11.9577 0.726011L0.291007 10.726L1.37566 11.9914L13.0423 1.99144L11.9577 0.726011ZM10 24.6921V19.6921H8.33333V24.6921H10ZM15 19.6921V24.6921H16.6667V19.6921H15ZM15.8333 25.5254H22.5V23.8587H15.8333V25.5254ZM25 23.0254V11.3587H23.3333V23.0254H25ZM0 11.3587V23.0254H1.66667V11.3587H0ZM12.5 17.1921C13.8807 17.1921 15 18.3114 15 19.6921H16.6667C16.6667 17.3909 14.8012 15.5254 12.5 15.5254V17.1921ZM12.5 15.5254C10.1988 15.5254 8.33333 17.3909 8.33333 19.6921H10C10 18.3114 11.1193 17.1921 12.5 17.1921V15.5254ZM22.5 25.5254C23.8807 25.5254 25 24.4061 25 23.0254H23.3333C23.3333 23.4856 22.9602 23.8587 22.5 23.8587V25.5254ZM2.5 23.8587C2.03977 23.8587 1.66667 23.4856 1.66667 23.0254H0C0 24.4061 1.11929 25.5254 2.5 25.5254V23.8587Z" fill="#034F75"/>
</g>
<defs>
<clipPath id="clip0_1411_8266">
<rect width="25" height="25" fill="white" transform="translate(0 0.525391)"/>
</clipPath>
</defs>
</svg>
