<svg width="32" height="25" viewBox="0 0 32 25" fill="none" xmlns="http://www.w3.org/2000/svg">
<g id="3-User">
<path id="3-Friends" d="M25.4322 2.85605C25.8756 4.06406 26.1146 5.37364 26.1146 6.73316C26.1146 8.05339 25.8898 9.32475 25.4705 10.5011C26.5275 10.072 27.3905 9.11941 27.6999 7.81169L25.4322 2.85605ZM25.4322 2.85605C27.0531 3.5295 28.2504 5.47442 27.7001 7.8108L25.4322 2.85605ZM6.50318 2.85527C6.05968 4.06346 5.82053 5.37326 5.82053 6.73302C5.82053 8.05325 6.04534 9.32461 6.46468 10.5009C5.40751 10.0718 4.54446 9.11904 4.23517 7.81107L6.50318 2.85527ZM6.50318 2.85527C4.88153 3.52815 3.68357 5.47365 4.23507 7.81066L6.50318 2.85527ZM3.74989 16.3136C3.81535 16.2965 3.89618 16.278 3.99056 16.2587C3.3659 17.2026 2.86975 18.3773 2.73037 19.8071C2.71162 19.7987 2.6929 19.7902 2.67424 19.7816C2.10138 19.5163 1.78163 19.2119 1.65678 18.9202L1.65174 18.9084L1.6465 18.8967C1.45117 18.4612 1.45117 17.9509 1.6465 17.5154L1.6502 17.5071L1.6538 17.4988C1.81467 17.1282 2.30559 16.6222 3.68171 16.3298L3.71599 16.3225L3.74989 16.3136ZM29.2041 19.8071C29.0647 18.3775 28.5688 17.2029 27.9445 16.2592C28.0375 16.2783 28.117 16.2966 28.1815 16.3136L28.2176 16.3232L28.254 16.3309C29.63 16.6221 30.1214 17.1283 30.282 17.4983L30.2852 17.5056L30.2885 17.513C30.4838 17.9499 30.4833 18.4627 30.2889 18.8971L30.2839 18.9083L30.279 18.9196C30.1542 19.2113 29.8344 19.5157 29.2616 19.781C29.2425 19.7899 29.2233 19.7986 29.2041 19.8071ZM15.8934 17.9682C18.3458 17.9682 20.427 18.1841 21.8472 18.7213C22.5433 18.9845 22.9839 19.2898 23.2439 19.5943C23.4793 19.87 23.6269 20.2118 23.6269 20.7193C23.6269 21.2291 23.4793 21.5746 23.2433 21.8536C22.9835 22.1605 22.5443 22.4682 21.851 22.734C20.436 23.2767 18.3566 23.5 15.8934 23.5C13.441 23.5 11.3598 23.2841 9.93952 22.747C9.24341 22.4838 8.80281 22.1786 8.54279 21.8742C8.30741 21.5987 8.16 21.2573 8.16 20.7503C8.16 20.24 8.3077 19.8941 8.54376 19.615C8.80352 19.3079 9.24276 19.0002 9.93598 18.7342C11.3509 18.1915 13.4303 17.9682 15.8934 17.9682ZM15.8934 1.5C18.3467 1.5 20.5036 3.65571 20.5036 6.61383C20.5036 9.57119 18.3461 11.7291 15.8934 11.7291C13.4408 11.7291 11.2833 9.57119 11.2833 6.61383C11.2833 3.65571 13.4402 1.5 15.8934 1.5Z" stroke="white" stroke-width="3"/>
</g>
</svg>
