<svg width="24" height="28" viewBox="0 0 24 28" fill="none" xmlns="http://www.w3.org/2000/svg">
<g id="Group 48098072">
<path id="Vector" d="M14.2112 24.2543C14.2112 24.5093 14.1225 24.7539 13.9645 24.9342C13.8066 25.1145 13.5924 25.2158 13.369 25.2158H6.63199C6.40864 25.2158 6.19444 25.1145 6.03651 24.9342C5.87858 24.7539 5.78985 24.5093 5.78985 24.2543C5.78985 23.9993 5.87858 23.7547 6.03651 23.5744C6.19444 23.394 6.40864 23.2927 6.63199 23.2927H13.369C13.5924 23.2927 13.8066 23.394 13.9645 23.5744C14.1225 23.7547 14.2112 23.9993 14.2112 24.2543ZM19.7798 20.4081C19.6324 20.7021 19.4192 20.946 19.1621 21.115C18.905 21.2839 18.6132 21.3718 18.3166 21.3697H1.68446C1.38776 21.3697 1.09631 21.2803 0.839621 21.1104C0.582928 20.9405 0.370095 20.6962 0.222661 20.4022C0.0752266 20.1082 -0.00157638 19.775 2.45244e-05 19.4362C0.00162542 19.0974 0.0815734 18.7652 0.231777 18.473C0.85285 17.2471 1.60024 14.9153 1.60024 10.7927V9.8312C1.59886 8.57007 1.81504 7.32098 2.23645 6.15524C2.65785 4.9895 3.27623 3.92995 4.05626 3.03708C4.8363 2.14421 5.76273 1.4355 6.78264 0.951431C7.80256 0.467358 8.896 0.217398 10.0005 0.21582H10.0637C14.6638 0.251878 18.4008 4.61486 18.4008 9.93938V10.7927C18.4008 14.9153 19.1482 17.2471 19.7693 18.473C19.9186 18.7665 19.9981 19.0995 20 19.439C20.0018 19.7784 19.9259 20.1125 19.7798 20.4081ZM18.3166 19.4466C17.5902 18.0043 16.7165 15.348 16.7165 10.7927V9.93938C16.7165 5.67255 13.727 2.16294 10.0532 2.1389H10.0005C9.11678 2.13889 8.24174 2.33803 7.42554 2.7249C6.60934 3.11177 5.86804 3.67876 5.24412 4.39337C4.62021 5.10799 4.12595 5.95617 3.78968 6.8893C3.45341 7.82244 3.28174 8.82217 3.28451 9.8312V10.7927C3.28451 15.348 2.4108 18.0043 1.68446 19.4466H18.3166Z" fill="white"/>
<path id="Vector_2" d="M9.92567 27.783C10.6536 27.7823 11.3678 27.5337 11.9925 27.0637C12.6172 26.5936 13.1291 25.9196 13.474 25.1132C13.4902 25.0746 13.4982 25.0313 13.4973 24.9876C13.4963 24.9439 13.4863 24.9012 13.4684 24.8638C13.4505 24.8264 13.4251 24.7954 13.3948 24.7739C13.3646 24.7524 13.3304 24.7412 13.2957 24.7412H6.55669C6.5219 24.7411 6.48766 24.7522 6.45733 24.7737C6.42699 24.7951 6.40158 24.8261 6.38357 24.8635C6.36556 24.901 6.35557 24.9437 6.35458 24.9874C6.35358 25.0312 6.3616 25.0745 6.37787 25.1132C6.72269 25.9195 7.23454 26.5935 7.85915 27.0635C8.48376 27.5335 9.19784 27.7821 9.92567 27.783Z" fill="white"/>
<g id="Ellipse 1" filter="url(#filter0_d_1411_8241)">
<ellipse cx="3.00044" cy="3.01094" rx="3.00044" ry="3.01094" transform="matrix(0.980415 -0.196941 0.195513 0.980701 12.9258 5.875)" fill="#FF0000"/>
<path d="M18.9076 7.74448C19.1791 9.10608 18.2994 10.4278 16.9471 10.6994C15.5948 10.971 14.2761 10.091 14.0047 8.72936C13.7332 7.36775 14.6129 6.04608 15.9652 5.77444C17.3175 5.5028 18.6362 6.38287 18.9076 7.74448Z" stroke="white"/>
</g>
</g>
<defs>
<filter id="filter0_d_1411_8241" x="9.45508" y="2.22461" width="14.002" height="14.0244" filterUnits="userSpaceOnUse" color-interpolation-filters="sRGB">
<feFlood flood-opacity="0" result="BackgroundImageFix"/>
<feColorMatrix in="SourceAlpha" type="matrix" values="0 0 0 0 0 0 0 0 0 0 0 0 0 0 0 0 0 0 127 0" result="hardAlpha"/>
<feOffset dy="1"/>
<feGaussianBlur stdDeviation="2"/>
<feComposite in2="hardAlpha" operator="out"/>
<feColorMatrix type="matrix" values="0 0 0 0 0 0 0 0 0 0 0 0 0 0 0 0 0 0 0.13 0"/>
<feBlend mode="normal" in2="BackgroundImageFix" result="effect1_dropShadow_1411_8241"/>
<feBlend mode="normal" in="SourceGraphic" in2="effect1_dropShadow_1411_8241" result="shape"/>
</filter>
</defs>
</svg>
